<svg width="1080" height="1080" viewBox="0 0 1080 1080" fill="none" xmlns="http://www.w3.org/2000/svg">
<path d="M826.212 511.83H865.569V984.753H826.212V511.83ZM983.642 511.83H1023V984.753H983.642V511.83ZM904.927 511.83H944.285V984.753H904.927V511.83ZM786.854 511.83V984.753C717.614 1011 645.822 1024.12 571.48 1024.12C506.977 1024.12 445.208 1012.27 386.171 988.58C327.135 964.888 275.204 932.084 230.38 890.168C185.556 847.888 149.661 795.766 122.693 733.803C96.0906 671.475 82.7892 604.227 82.7892 532.059C82.7892 465.358 95.7262 401.754 121.6 341.249C147.839 280.38 182.823 228.076 226.554 184.337C270.649 140.234 322.944 105.243 383.438 79.3647C444.297 53.1216 508.071 40 574.76 40C657.848 40 735.106 59.3179 806.533 97.9536C877.96 136.589 936.267 189.076 981.456 255.412L948.658 276.735C907.114 215.865 853.361 167.753 787.401 132.398C721.805 97.0424 650.924 79.3647 574.76 79.3647C513.537 79.3647 454.865 91.3928 398.744 115.449C342.987 139.141 294.883 171.216 254.432 211.674C213.981 252.132 181.73 300.427 157.678 356.558C133.991 412.324 122.147 470.825 122.147 532.059C122.147 598.031 134.355 659.63 158.771 716.854C183.552 774.079 216.35 822.009 257.165 860.645C298.345 899.28 346.085 929.715 400.384 951.949C454.683 973.818 511.168 984.753 569.84 984.753C631.428 984.753 690.646 975.094 747.496 955.776V918.052C693.197 936.276 636.165 945.388 576.4 945.388C533.034 945.388 490.76 939.374 449.581 927.346C408.765 914.953 370.865 896.911 335.881 873.22C301.261 849.163 270.831 820.733 244.593 787.929C218.719 754.761 198.311 716.307 183.37 672.569C168.793 628.466 161.505 581.629 161.505 532.059C161.505 457.339 179.908 388.268 216.715 324.847C253.886 261.426 304.176 211.309 367.586 174.496C430.995 137.318 500.053 118.729 574.76 118.729C644.729 118.729 709.779 135.131 769.908 167.935C830.038 200.375 879.053 244.478 916.953 300.244L884.155 321.567C849.899 271.268 805.44 231.538 750.776 202.379C696.477 172.856 637.805 158.094 574.76 158.094C524.105 158.094 475.637 167.935 429.355 187.618C383.074 207.3 343.169 233.908 309.642 267.441C276.48 300.609 250.059 340.338 230.38 386.628C210.702 432.918 200.862 481.395 200.862 532.059C200.862 577.62 207.422 620.447 220.541 660.541C234.025 700.27 252.428 735.079 275.751 764.967C299.439 794.49 326.952 820.004 358.293 841.509C389.633 862.649 423.707 878.687 460.513 889.622C497.685 900.556 535.767 906.023 574.76 906.023C635.254 906.023 692.833 895.818 747.496 875.406V836.042C693.562 856.818 637.258 867.206 578.586 867.206C534.127 867.206 491.672 859.734 451.221 844.789C410.77 829.481 374.692 807.976 342.987 780.275C311.647 752.574 286.684 717.219 268.098 674.209C249.513 631.2 240.22 583.816 240.22 532.059C240.22 471.554 255.161 415.605 285.044 364.212C314.927 312.819 355.56 272.179 406.943 242.291C458.327 212.403 514.266 197.459 574.76 197.459C631.245 197.459 683.722 210.58 732.191 236.824C781.023 263.067 820.745 298.786 851.357 343.983L818.559 365.306C791.592 325.941 756.607 294.777 713.605 271.814C670.968 248.487 624.686 236.824 574.76 236.824C521.19 236.824 471.811 250.127 426.622 276.735C381.434 302.978 345.538 338.698 318.935 383.894C292.697 429.091 279.577 478.479 279.577 532.059C279.577 569.237 284.862 603.863 295.43 635.938C305.998 668.013 320.575 695.714 339.161 719.041C357.746 742.368 379.429 762.233 404.21 778.635C429.355 795.037 456.323 807.43 485.112 815.813C513.901 823.831 543.784 827.841 574.76 827.841C636.347 827.841 693.926 815.63 747.496 791.21V753.485C695.748 776.448 639.809 787.929 579.68 787.929C545.06 787.929 512.444 782.644 481.832 772.074C451.221 761.504 423.525 746.013 398.744 725.602C374.327 705.191 354.831 678.401 340.254 645.232C326.041 611.699 318.935 573.975 318.935 532.059C318.935 497.432 325.677 464.446 339.161 433.1C352.644 401.39 370.865 374.053 393.824 351.091C416.783 328.128 443.932 309.903 475.273 296.417C506.977 282.931 540.14 276.188 574.76 276.188C618.126 276.188 658.395 286.394 695.566 306.805C732.737 326.852 762.984 354.189 786.307 388.815L754.056 410.138C734.377 380.979 708.685 358.016 676.981 341.249C645.64 324.118 611.567 315.553 574.76 315.553C514.995 315.553 463.975 336.693 421.702 378.974C379.429 421.254 358.293 472.283 358.293 532.059C358.293 568.872 364.306 601.494 376.332 629.924C388.358 657.989 404.757 680.588 425.529 697.719C446.665 714.485 469.988 727.242 495.498 735.99C521.372 744.373 549.068 748.565 578.586 748.565C639.081 748.565 695.384 735.99 747.496 710.84V511.83H786.854Z" fill="#020202"/>
<path d="M798.423 527.712H837.78V1000.64H798.423V527.712ZM955.853 527.712H995.211V1000.64H955.853V527.712ZM877.138 527.712H916.496V1000.64H877.138V527.712ZM759.065 527.712V1000.64C689.825 1026.88 618.033 1040 543.691 1040C479.188 1040 417.418 1028.15 358.382 1004.46C299.345 980.771 247.415 947.967 202.591 906.051C157.767 863.77 121.872 811.648 94.9043 749.685C68.3014 687.358 55 620.11 55 547.941C55 481.24 67.937 417.637 93.811 357.132C120.049 296.262 155.034 243.958 198.765 200.22C242.86 156.117 295.155 121.126 355.649 95.2471C416.507 69.0039 480.281 55.8824 546.971 55.8824C630.059 55.8824 707.317 75.2002 778.744 113.836C850.171 152.472 908.478 204.958 953.667 271.295L920.869 292.617C879.324 231.748 825.572 183.635 759.612 148.28C694.015 112.925 623.135 95.2471 546.971 95.2471C485.748 95.2471 427.076 107.275 370.955 131.331C315.198 155.023 267.094 187.098 226.643 227.556C186.192 268.014 153.941 316.309 129.889 372.44C106.201 428.207 94.3577 486.707 94.3577 547.941C94.3577 613.914 106.566 675.512 130.982 732.737C155.763 789.961 188.561 837.891 229.376 876.527C270.556 915.163 318.295 945.598 372.594 967.831C426.893 989.701 483.379 1000.64 542.051 1000.64C603.639 1000.64 662.857 990.976 719.707 971.659V933.934C665.408 952.158 608.376 961.271 548.611 961.271C505.244 961.271 462.971 955.257 421.792 943.228C380.976 930.836 343.076 912.794 308.092 889.102C273.471 865.046 243.042 836.616 216.804 803.812C190.93 770.643 170.522 732.19 155.581 688.451C141.004 644.348 133.715 597.512 133.715 547.941C133.715 473.221 152.119 404.151 188.925 340.73C226.097 277.309 276.387 227.192 339.796 190.378C403.206 153.201 472.264 134.612 546.971 134.612C616.94 134.612 681.989 151.014 742.119 183.818C802.249 216.257 851.264 260.36 889.164 316.127L856.366 337.449C822.11 287.15 777.65 247.421 722.987 218.262C668.688 188.738 610.016 173.976 546.971 173.976C496.316 173.976 447.848 183.818 401.566 203.5C355.284 223.182 315.38 249.79 281.853 283.323C248.691 316.491 222.27 356.22 202.591 402.51C182.912 448.8 173.073 497.277 173.073 547.941C173.073 593.502 179.633 636.33 192.752 676.423C206.235 716.152 224.639 750.961 247.962 780.849C271.649 810.373 299.163 835.887 330.504 857.391C361.844 878.532 395.918 894.569 432.724 905.504C469.895 916.439 507.978 921.906 546.971 921.906C607.465 921.906 665.044 911.7 719.707 891.289V851.924C665.773 872.7 609.469 883.088 550.797 883.088C506.338 883.088 463.882 875.616 423.431 860.672C382.981 845.363 346.903 823.859 315.198 796.158C283.858 768.456 258.895 733.101 240.309 690.091C221.723 647.082 212.431 599.698 212.431 547.941C212.431 487.436 227.372 431.487 257.255 380.094C287.137 328.702 327.77 288.061 379.154 258.173C430.538 228.285 486.477 213.341 546.971 213.341C603.456 213.341 655.933 226.463 704.401 252.706C753.234 278.949 792.956 314.669 823.568 359.865L790.77 381.188C763.802 341.823 728.818 310.659 685.816 287.697C643.178 264.37 596.897 252.706 546.971 252.706C493.401 252.706 444.021 266.01 398.833 292.617C353.645 318.86 317.749 354.58 291.146 399.777C264.908 444.973 251.788 494.361 251.788 547.941C251.788 585.119 257.072 619.745 267.641 651.82C278.209 683.895 292.786 711.596 311.371 734.924C329.957 758.251 351.64 778.115 376.421 794.517C401.566 810.919 428.533 823.312 457.323 831.695C486.112 839.714 515.995 843.723 546.971 843.723C608.558 843.723 666.137 831.513 719.707 807.092V769.368C667.959 792.33 612.02 803.812 551.891 803.812C517.27 803.812 484.654 798.527 454.043 787.957C423.431 777.386 395.735 761.896 370.955 741.484C346.538 721.073 327.042 694.283 312.465 661.115C298.252 627.582 291.146 589.857 291.146 547.941C291.146 513.315 297.888 480.329 311.371 448.983C324.855 417.272 343.076 389.936 366.035 366.973C388.993 344.01 416.143 325.786 447.483 312.3C479.188 298.814 512.351 292.071 546.971 292.071C590.337 292.071 630.606 302.276 667.777 322.688C704.948 342.734 735.195 370.071 758.518 404.697L726.267 426.02C706.588 396.861 680.896 373.898 649.191 357.132C617.851 340.001 583.777 331.435 546.971 331.435C487.205 331.435 436.186 352.576 393.913 394.856C351.64 437.137 330.504 488.165 330.504 547.941C330.504 584.754 336.517 617.376 348.543 645.806C360.569 673.872 376.968 696.47 397.74 713.601C418.876 730.367 442.199 743.125 467.709 751.872C493.583 760.255 521.279 764.447 550.797 764.447C611.291 764.447 667.595 751.872 719.707 726.723V527.712H759.065Z" fill="url(#paint0_linear_709_93)"/>
<defs>
<linearGradient id="paint0_linear_709_93" x1="1042.66" y1="-122.05" x2="196.878" y2="1059.06" gradientUnits="userSpaceOnUse">
<stop stop-color="white"/>
<stop offset="1" stop-color="#D1D1D1" stop-opacity="0.78"/>
</linearGradient>
</defs>
</svg>
