<svg width="630" height="630" viewBox="0 0 630 630" fill="none" xmlns="http://www.w3.org/2000/svg">
<path fill-rule="evenodd" clip-rule="evenodd" d="M125 312.952C125 420.685 203.876 494.751 304.395 494.751C418.861 494.751 487.637 409.142 480.423 295.157H300.066V316.186L300.045 316.186V343.256H300.066V366.818H383.271C373.171 395.676 348.642 417.799 309.204 417.799C246.681 417.799 218.305 373.071 218.305 315.357C218.305 247.543 254.376 216.281 299.104 216.281C334.214 216.281 359.704 236 368.361 262.452H418.165C418.185 262.52 418.204 262.589 418.224 262.657H455.945C455.925 262.589 455.906 262.52 455.886 262.452H476.094C452.047 185.019 388.08 135 301.509 135C200.028 135 125 210.99 125 312.952ZM455.886 262.452C437.635 198.649 383.891 150.162 300.993 150.162C208.686 150.162 142.119 222.055 142.119 316.136C142.119 411.993 211.793 482.111 303.212 482.111C397.293 482.111 459.423 416.875 460.31 316.136L300.066 316.186V343.256L425.695 343.207C417.264 410.218 373.329 453.265 304.099 453.265C227.325 453.265 176.29 395.129 176.29 316.58C176.29 236.256 226.881 179.896 300.105 179.896C364.363 179.896 404.353 214.188 418.165 262.452H455.886Z" fill="url(#paint0_linear_933_6)"/>
<circle cx="481.053" cy="470.177" r="19.8554" stroke="#2B343E" stroke-width="9"/>
<defs>
<linearGradient id="paint0_linear_933_6" x1="125" y1="314.876" x2="480.94" y2="314.876" gradientUnits="userSpaceOnUse">
<stop stop-color="#485563"/>
<stop offset="1" stop-color="#29323C"/>
</linearGradient>
</defs>
</svg>
