<svg width="630" height="630" viewBox="0 0 630 630" fill="none" xmlns="http://www.w3.org/2000/svg">
<path fill-rule="evenodd" clip-rule="evenodd" d="M125 312.968C125 420.711 203.883 494.784 304.411 494.784C418.887 494.784 487.67 409.167 480.455 295.171H300.082V366.839H383.294C373.193 395.699 348.662 417.825 309.221 417.825C246.692 417.825 218.313 373.092 218.313 315.373C218.313 247.553 254.387 216.288 299.12 216.288C334.232 216.288 359.725 236.009 368.383 262.463H416.992C417.036 262.614 417.079 262.764 417.121 262.915H454.477C454.434 262.764 454.391 262.614 454.348 262.463H476.126C452.076 185.023 388.104 135 301.525 135C200.035 135 125 210.997 125 312.968ZM454.348 262.463C436.206 199.267 383.015 151.275 301.028 151.275C209.616 151.275 143.695 222.621 143.695 315.987C143.695 411.115 212.693 480.7 303.225 480.7C396.394 480.7 457.921 415.96 458.8 315.987H300.115V342.852H424.521C416.171 409.354 372.662 452.073 304.104 452.073C228.074 452.073 177.535 394.38 177.535 316.427C177.535 236.714 227.635 180.782 300.149 180.782C363.673 180.782 403.249 214.696 416.992 262.463H454.348Z" fill="url(#paint0_linear_933_2)"/>
<circle cx="481.053" cy="470.177" r="19.8554" stroke="#F7F9F7" stroke-width="9"/>
<defs>
<linearGradient id="paint0_linear_933_2" x1="125" y1="314.892" x2="480.972" y2="314.892" gradientUnits="userSpaceOnUse">
<stop stop-color="#ABBAAB"/>
<stop offset="1" stop-color="white"/>
</linearGradient>
</defs>
</svg>
